<mxfile host="app.diagrams.net" modified="2024-03-19T17:10:46.989Z" agent="Mozilla/5.0 (Macintosh; Intel Mac OS X 10_15_7) AppleWebKit/605.1.15 (KHTML, like Gecko) Version/17.0 Safari/605.1.15" etag="yCcUMdr7ztk-8q9jg6-m" version="24.0.7" type="device">
  <diagram name="Страница — 1" id="pLnAJ90t_DyGZFgo7GOm">
    <mxGraphModel dx="1576" dy="1122" grid="0" gridSize="10" guides="1" tooltips="1" connect="1" arrows="1" fold="1" page="0" pageScale="1" pageWidth="1169" pageHeight="1654" math="0" shadow="0">
      <root>
        <mxCell id="0" />
        <mxCell id="1" parent="0" />
        <mxCell id="U3q8d2v7o-mLdVs82vZy-1" value="" style="rounded=0;whiteSpace=wrap;html=1;" vertex="1" parent="1">
          <mxGeometry x="220" y="360" width="890" height="940" as="geometry" />
        </mxCell>
        <mxCell id="U3q8d2v7o-mLdVs82vZy-5" value="" style="line;strokeWidth=2;html=1;" vertex="1" parent="1">
          <mxGeometry x="220" y="400" width="890" height="10" as="geometry" />
        </mxCell>
        <mxCell id="U3q8d2v7o-mLdVs82vZy-6" value="Pool" style="text;strokeColor=none;fillColor=none;html=1;fontSize=24;fontStyle=1;verticalAlign=middle;align=center;" vertex="1" parent="1">
          <mxGeometry x="585" y="360" width="100" height="40" as="geometry" />
        </mxCell>
        <mxCell id="U3q8d2v7o-mLdVs82vZy-7" value="" style="line;strokeWidth=2;html=1;" vertex="1" parent="1">
          <mxGeometry x="220" y="440" width="890" height="10" as="geometry" />
        </mxCell>
        <mxCell id="U3q8d2v7o-mLdVs82vZy-8" value="" style="line;strokeWidth=2;direction=south;html=1;" vertex="1" parent="1">
          <mxGeometry x="480" y="410" width="10" height="890" as="geometry" />
        </mxCell>
        <mxCell id="U3q8d2v7o-mLdVs82vZy-9" value="&lt;font style=&quot;font-size: 20px;&quot;&gt;Система&lt;/font&gt;" style="text;html=1;align=center;verticalAlign=middle;whiteSpace=wrap;rounded=0;" vertex="1" parent="1">
          <mxGeometry x="320" y="410" width="60" height="30" as="geometry" />
        </mxCell>
        <mxCell id="U3q8d2v7o-mLdVs82vZy-10" value="&lt;font style=&quot;font-size: 20px;&quot;&gt;Тестировщик&lt;/font&gt;" style="text;html=1;align=center;verticalAlign=middle;whiteSpace=wrap;rounded=0;" vertex="1" parent="1">
          <mxGeometry x="770" y="410" width="60" height="30" as="geometry" />
        </mxCell>
        <mxCell id="U3q8d2v7o-mLdVs82vZy-22" style="edgeStyle=orthogonalEdgeStyle;rounded=0;orthogonalLoop=1;jettySize=auto;html=1;exitX=0.5;exitY=1;exitDx=0;exitDy=0;" edge="1" parent="1" source="U3q8d2v7o-mLdVs82vZy-11" target="U3q8d2v7o-mLdVs82vZy-12">
          <mxGeometry relative="1" as="geometry" />
        </mxCell>
        <mxCell id="U3q8d2v7o-mLdVs82vZy-11" value="" style="ellipse;whiteSpace=wrap;html=1;aspect=fixed;fillColor=#B266FF;" vertex="1" parent="1">
          <mxGeometry x="760" y="470" width="80" height="80" as="geometry" />
        </mxCell>
        <mxCell id="U3q8d2v7o-mLdVs82vZy-23" style="edgeStyle=orthogonalEdgeStyle;rounded=0;orthogonalLoop=1;jettySize=auto;html=1;exitX=0.5;exitY=1;exitDx=0;exitDy=0;entryX=0.5;entryY=0;entryDx=0;entryDy=0;" edge="1" parent="1" source="U3q8d2v7o-mLdVs82vZy-12" target="U3q8d2v7o-mLdVs82vZy-14">
          <mxGeometry relative="1" as="geometry" />
        </mxCell>
        <mxCell id="U3q8d2v7o-mLdVs82vZy-12" value="Запустить приложение" style="rounded=1;whiteSpace=wrap;html=1;" vertex="1" parent="1">
          <mxGeometry x="740" y="590" width="120" height="60" as="geometry" />
        </mxCell>
        <mxCell id="U3q8d2v7o-mLdVs82vZy-24" style="edgeStyle=orthogonalEdgeStyle;rounded=0;orthogonalLoop=1;jettySize=auto;html=1;exitX=0.5;exitY=1;exitDx=0;exitDy=0;entryX=0.5;entryY=0;entryDx=0;entryDy=0;" edge="1" parent="1" source="U3q8d2v7o-mLdVs82vZy-14" target="U3q8d2v7o-mLdVs82vZy-18">
          <mxGeometry relative="1" as="geometry" />
        </mxCell>
        <mxCell id="U3q8d2v7o-mLdVs82vZy-25" style="edgeStyle=orthogonalEdgeStyle;rounded=0;orthogonalLoop=1;jettySize=auto;html=1;exitX=0;exitY=0.75;exitDx=0;exitDy=0;entryX=0.5;entryY=0;entryDx=0;entryDy=0;" edge="1" parent="1" source="U3q8d2v7o-mLdVs82vZy-14" target="U3q8d2v7o-mLdVs82vZy-15">
          <mxGeometry relative="1" as="geometry" />
        </mxCell>
        <mxCell id="U3q8d2v7o-mLdVs82vZy-26" style="edgeStyle=orthogonalEdgeStyle;rounded=0;orthogonalLoop=1;jettySize=auto;html=1;exitX=1;exitY=0.75;exitDx=0;exitDy=0;entryX=0.5;entryY=0;entryDx=0;entryDy=0;" edge="1" parent="1" source="U3q8d2v7o-mLdVs82vZy-14" target="U3q8d2v7o-mLdVs82vZy-16">
          <mxGeometry relative="1" as="geometry" />
        </mxCell>
        <mxCell id="U3q8d2v7o-mLdVs82vZy-27" style="edgeStyle=orthogonalEdgeStyle;rounded=0;orthogonalLoop=1;jettySize=auto;html=1;exitX=0.25;exitY=1;exitDx=0;exitDy=0;" edge="1" parent="1" source="U3q8d2v7o-mLdVs82vZy-14" target="U3q8d2v7o-mLdVs82vZy-20">
          <mxGeometry relative="1" as="geometry" />
        </mxCell>
        <mxCell id="U3q8d2v7o-mLdVs82vZy-28" style="edgeStyle=orthogonalEdgeStyle;rounded=0;orthogonalLoop=1;jettySize=auto;html=1;exitX=0.75;exitY=1;exitDx=0;exitDy=0;" edge="1" parent="1" source="U3q8d2v7o-mLdVs82vZy-14" target="U3q8d2v7o-mLdVs82vZy-21">
          <mxGeometry relative="1" as="geometry" />
        </mxCell>
        <mxCell id="U3q8d2v7o-mLdVs82vZy-14" value="" style="rounded=0;whiteSpace=wrap;html=1;fillColor=#B266FF;" vertex="1" parent="1">
          <mxGeometry x="600" y="680" width="400" height="10" as="geometry" />
        </mxCell>
        <mxCell id="U3q8d2v7o-mLdVs82vZy-30" style="edgeStyle=orthogonalEdgeStyle;rounded=0;orthogonalLoop=1;jettySize=auto;html=1;exitX=0.25;exitY=1;exitDx=0;exitDy=0;entryX=0;entryY=0.5;entryDx=0;entryDy=0;" edge="1" parent="1" source="U3q8d2v7o-mLdVs82vZy-15" target="U3q8d2v7o-mLdVs82vZy-29">
          <mxGeometry relative="1" as="geometry" />
        </mxCell>
        <mxCell id="U3q8d2v7o-mLdVs82vZy-15" value="&lt;span style=&quot;font-family: LiberationSans; font-size: 16px;&quot;&gt;Вывести данные об кинофильмах, доход которых меньше 100 000 BYN&lt;/span&gt;" style="rounded=1;whiteSpace=wrap;html=1;" vertex="1" parent="1">
          <mxGeometry x="510" y="720" width="180" height="80" as="geometry" />
        </mxCell>
        <mxCell id="U3q8d2v7o-mLdVs82vZy-34" style="edgeStyle=orthogonalEdgeStyle;rounded=0;orthogonalLoop=1;jettySize=auto;html=1;exitX=0.75;exitY=1;exitDx=0;exitDy=0;entryX=1;entryY=0.5;entryDx=0;entryDy=0;" edge="1" parent="1" source="U3q8d2v7o-mLdVs82vZy-16" target="U3q8d2v7o-mLdVs82vZy-29">
          <mxGeometry relative="1" as="geometry" />
        </mxCell>
        <mxCell id="U3q8d2v7o-mLdVs82vZy-16" value="&lt;div style=&quot;font-size: 14px;&quot;&gt;&lt;span style=&quot;font-family: LiberationSans;&quot;&gt;Вывести данные обо всех кинолентах в форме идентификатор киноленты,&lt;/span&gt;&lt;/div&gt;&lt;div style=&quot;font-size: 14px;&quot;&gt;&lt;span style=&quot;font-family: LiberationSans;&quot;&gt;название, цена билета&lt;/span&gt;&lt;/div&gt;" style="rounded=1;whiteSpace=wrap;html=1;" vertex="1" parent="1">
          <mxGeometry x="910" y="720" width="180" height="80" as="geometry" />
        </mxCell>
        <mxCell id="U3q8d2v7o-mLdVs82vZy-32" style="edgeStyle=orthogonalEdgeStyle;rounded=0;orthogonalLoop=1;jettySize=auto;html=1;exitX=0.5;exitY=1;exitDx=0;exitDy=0;entryX=0.5;entryY=0;entryDx=0;entryDy=0;" edge="1" parent="1" source="U3q8d2v7o-mLdVs82vZy-18" target="U3q8d2v7o-mLdVs82vZy-29">
          <mxGeometry relative="1" as="geometry" />
        </mxCell>
        <mxCell id="U3q8d2v7o-mLdVs82vZy-18" value="&lt;span style=&quot;font-family: LiberationSans; font-size: 16px;&quot;&gt;Подсчет количества кинолент, если цена билета &amp;gt;=3 BYN&lt;/span&gt;" style="rounded=1;whiteSpace=wrap;html=1;" vertex="1" parent="1">
          <mxGeometry x="710" y="720" width="180" height="80" as="geometry" />
        </mxCell>
        <mxCell id="U3q8d2v7o-mLdVs82vZy-31" style="edgeStyle=orthogonalEdgeStyle;rounded=0;orthogonalLoop=1;jettySize=auto;html=1;exitX=0.5;exitY=1;exitDx=0;exitDy=0;entryX=0.25;entryY=0;entryDx=0;entryDy=0;" edge="1" parent="1" source="U3q8d2v7o-mLdVs82vZy-20" target="U3q8d2v7o-mLdVs82vZy-29">
          <mxGeometry relative="1" as="geometry" />
        </mxCell>
        <mxCell id="U3q8d2v7o-mLdVs82vZy-20" value="&lt;div style=&quot;font-size: 14px;&quot;&gt;&lt;span style=&quot;font-size: 12pt; font-family: LiberationSans;&quot;&gt;&amp;nbsp; Суммарный доход всех кинолент, которых были показаны в кинотеатрах г.&amp;nbsp;&lt;/span&gt;&lt;/div&gt;&lt;div style=&quot;font-size: 14px;&quot;&gt;&lt;span style=&quot;font-size: 12pt; font-family: LiberationSans;&quot;&gt;Минска&lt;/span&gt;&lt;/div&gt;" style="rounded=1;whiteSpace=wrap;html=1;" vertex="1" parent="1">
          <mxGeometry x="600" y="840" width="190" height="80" as="geometry" />
        </mxCell>
        <mxCell id="U3q8d2v7o-mLdVs82vZy-33" style="edgeStyle=orthogonalEdgeStyle;rounded=0;orthogonalLoop=1;jettySize=auto;html=1;exitX=0.5;exitY=1;exitDx=0;exitDy=0;entryX=0.75;entryY=0;entryDx=0;entryDy=0;" edge="1" parent="1" source="U3q8d2v7o-mLdVs82vZy-21" target="U3q8d2v7o-mLdVs82vZy-29">
          <mxGeometry relative="1" as="geometry" />
        </mxCell>
        <mxCell id="U3q8d2v7o-mLdVs82vZy-21" value="&lt;div style=&quot;font-size: 14px;&quot;&gt;&lt;span style=&quot;font-family: LiberationSans; font-size: 16px;&quot;&gt;Максимальная и минимальная прибыль&lt;/span&gt;&lt;br&gt;&lt;/div&gt;" style="rounded=1;whiteSpace=wrap;html=1;" vertex="1" parent="1">
          <mxGeometry x="810" y="840" width="190" height="80" as="geometry" />
        </mxCell>
        <mxCell id="U3q8d2v7o-mLdVs82vZy-37" style="edgeStyle=orthogonalEdgeStyle;rounded=0;orthogonalLoop=1;jettySize=auto;html=1;exitX=0.5;exitY=1;exitDx=0;exitDy=0;entryX=0.5;entryY=0;entryDx=0;entryDy=0;" edge="1" parent="1" source="U3q8d2v7o-mLdVs82vZy-29" target="U3q8d2v7o-mLdVs82vZy-35">
          <mxGeometry relative="1" as="geometry" />
        </mxCell>
        <mxCell id="U3q8d2v7o-mLdVs82vZy-29" value="" style="rounded=0;whiteSpace=wrap;html=1;fillColor=#B266FF;" vertex="1" parent="1">
          <mxGeometry x="600" y="970" width="400" height="10" as="geometry" />
        </mxCell>
        <mxCell id="U3q8d2v7o-mLdVs82vZy-38" style="edgeStyle=orthogonalEdgeStyle;rounded=0;orthogonalLoop=1;jettySize=auto;html=1;exitX=0.5;exitY=1;exitDx=0;exitDy=0;entryX=0.5;entryY=0;entryDx=0;entryDy=0;" edge="1" parent="1" source="U3q8d2v7o-mLdVs82vZy-35" target="U3q8d2v7o-mLdVs82vZy-36">
          <mxGeometry relative="1" as="geometry" />
        </mxCell>
        <mxCell id="U3q8d2v7o-mLdVs82vZy-35" value="&lt;font style=&quot;font-size: 19px;&quot;&gt;Выполнить запрос&lt;/font&gt;" style="rounded=1;whiteSpace=wrap;html=1;" vertex="1" parent="1">
          <mxGeometry x="257.5" y="1030" width="185" height="60" as="geometry" />
        </mxCell>
        <mxCell id="U3q8d2v7o-mLdVs82vZy-40" style="edgeStyle=orthogonalEdgeStyle;rounded=0;orthogonalLoop=1;jettySize=auto;html=1;exitX=0.5;exitY=1;exitDx=0;exitDy=0;" edge="1" parent="1" source="U3q8d2v7o-mLdVs82vZy-36" target="U3q8d2v7o-mLdVs82vZy-39">
          <mxGeometry relative="1" as="geometry" />
        </mxCell>
        <mxCell id="U3q8d2v7o-mLdVs82vZy-36" value="&lt;span style=&quot;font-size: 19px;&quot;&gt;Вернуть результат&lt;/span&gt;" style="rounded=1;whiteSpace=wrap;html=1;" vertex="1" parent="1">
          <mxGeometry x="257.5" y="1130" width="185" height="60" as="geometry" />
        </mxCell>
        <mxCell id="U3q8d2v7o-mLdVs82vZy-39" value="&lt;font style=&quot;font-size: 19px;&quot;&gt;Получить результат&lt;/font&gt;" style="rounded=1;whiteSpace=wrap;html=1;" vertex="1" parent="1">
          <mxGeometry x="695" y="1190" width="210" height="60" as="geometry" />
        </mxCell>
      </root>
    </mxGraphModel>
  </diagram>
</mxfile>
